<svg xmlns="http://www.w3.org/2000/svg" xmlns:xlink="http://www.w3.org/1999/xlink" viewBox="0 0 500 500"><defs><clipPath id="freepik--clip-path--inject-2"><rect x="105.56" y="107.43" width="161.75" height="315.66" rx="14.52" style="fill:#263238;stroke:#263238;stroke-linecap:round;stroke-linejoin:round"></rect></clipPath></defs><g id="freepik--Character--inject-2"><path d="M304.55,283.3H404.81a16.25,16.25,0,0,1,16.25,16.25v120a3.95,3.95,0,0,1-3.95,3.95H292.25a3.95,3.95,0,0,1-3.95-3.95v-120A16.25,16.25,0,0,1,304.55,283.3Z" style="fill:#263238;stroke:#263238;stroke-linecap:round;stroke-linejoin:round"></path><path d="M293.89,282.37H394.14a16.25,16.25,0,0,1,16.25,16.25v120a3.95,3.95,0,0,1-3.95,3.95H281.59a3.95,3.95,0,0,1-3.95-3.95v-120A16.25,16.25,0,0,1,293.89,282.37Z" style="fill:#c4c4c4;stroke:#263238;stroke-linecap:round;stroke-linejoin:round"></path><rect x="269.47" y="313.93" width="28.31" height="109.54" rx="3.95" style="fill:#fff;stroke:#263238;stroke-linecap:round;stroke-linejoin:round"></rect><rect x="268.3" y="344.57" width="109.07" height="27.38" style="fill:#c4c4c4;stroke:#263238;stroke-linecap:round;stroke-linejoin:round"></rect><rect x="268.3" y="351.99" width="109.07" height="27.38" style="fill:#c4c4c4;stroke:#263238;stroke-linecap:round;stroke-linejoin:round"></rect><rect x="250.66" y="313.93" width="28.31" height="109.54" rx="3.95" style="fill:#c4c4c4;stroke:#263238;stroke-linecap:round;stroke-linejoin:round"></rect><rect x="278.97" y="377.52" width="132.75" height="45.95" rx="3.95" style="fill:#c4c4c4;stroke:#263238;stroke-linecap:round;stroke-linejoin:round"></rect><path d="M341.35,189.3a17,17,0,0,0-9.62,1.07c-4.71,2.14-21,18-22,21.81s4.27,10.06,6.2,15.41,4.06,10.69,2.78,16.47-4.71,7.48-4.71,7.48-.21.22,6.42,2.14,14.12-1.07,18.4-7.06,5.56-16.25,4.92-26.73S341.35,189.3,341.35,189.3Z" style="fill:#263238;stroke:#263238;stroke-linecap:round;stroke-linejoin:round"></path><path d="M365.31,330.9a97.11,97.11,0,0,1-13.05-1.71c-7.7-1.5-32.94-15.19-38.29-16-3.35-.54-8.05-1.41-11.19-.35a34.59,34.59,0,0,0-10.53-3.3s-13-.25-14.75,8.25,1.75,44.5,3,60.25,7.25,37.5,5.5,44.75-6,10-5.5,11,8.75,0,12.25-1.75,4.25-7.25,4.25-10-.75-6.25,1.25-8.25,4.25-3.5,3-7.25-7.5-7-7.5-7a113.22,113.22,0,0,1,1.5-29.75,153.34,153.34,0,0,0,2.75-32.5c0-7.25-.25-13.75-.25-13.75S307.5,342,316,348.25s27,4.5,27,4.5l-.08-.12c8.28-.25,21.84-1,23.89-7.19C369.16,338.39,365.31,330.9,365.31,330.9Z" style="fill:#92E3A9;stroke:#263238;stroke-linecap:round;stroke-linejoin:round"></path><path d="M293.75,399.5a111.51,111.51,0,0,1,.94-26.34,26.69,26.69,0,0,1-14.33,3.09c.05.6.1,1.19.14,1.75,1.25,15.75,7.25,37.5,5.5,44.75s-6,10-5.5,11,8.75,0,12.25-1.75,4.25-7.25,4.25-10-.75-6.25,1.25-8.25,4.25-3.5,3-7.25S293.75,399.5,293.75,399.5Z" style="fill:#fff;stroke:#263238;stroke-linecap:round;stroke-linejoin:round"></path><path d="M292.75,432c3.5-1.75,4.25-7.25,4.25-10s-.75-6.25,1.25-8.25,4.25-3.5,3-7.25-7.5-7-7.5-7-.16-1.45-.27-4c-1.72,1.12-6,3.57-10,3.11,1.82,10.29,3.53,19.78,2.49,24.11-1.75,7.25-6,10-5.5,11S289.25,433.75,292.75,432Z" style="fill:#92E3A9;stroke:#263238;stroke-linecap:round;stroke-linejoin:round"></path><path d="M331.51,242.13a16.68,16.68,0,0,1-1.07,6.42c-1.28,3.42-19.67,6.63-20.53,8.77s-3.21,12.83-4.49,23.1-3.21,21-3.21,21-.86,6.2-.21,9.84,37.43,19,48.55,20.11,14.76,1.28,15.83-.86a8.28,8.28,0,0,0,1.07-3.21,7.23,7.23,0,0,0-.64-4.28c-2.5-4.49-6-13-6-17.54s12-43.42,11.55-46-22-10.48-22-10.48-7.06-1.72-8.13-3.64-1.07-10.48-1.07-10.48Z" style="fill:#6b6b6b;stroke:#263238;stroke-linecap:round;stroke-linejoin:round"></path><path d="M350.34,249s-7.06-1.72-8.13-3.64-1.07-10.48-1.07-10.48l-9.63,7.27a16.68,16.68,0,0,1-1.07,6.42c-.5,1.35-3.7,2.68-7.43,3.91.25,3.4,1.49,10.76,7.65,13.84,7.58,3.79,15.92-3.78,21.52-16.64Z" style="fill:#fff;stroke:#263238;stroke-linecap:round;stroke-linejoin:round"></path><path d="M334.51,262.66c6.45.5,10.6-10,12.15-14.79-1.9-.67-3.92-1.57-4.45-2.53-1.07-1.93-1.07-10.48-1.07-10.48l-9.63,7.27a16.68,16.68,0,0,1-1.07,6.42A4.74,4.74,0,0,1,328,250.5C327.78,252.68,327.14,262.1,334.51,262.66Z" style="fill:#fff;stroke:#263238;stroke-linecap:round;stroke-linejoin:round"></path><path d="M330.66,204.91,316.11,215s1.07,15.18,2.57,18.82,4.92,10.69,10.27,10.05,11.55-8.13,11.55-8.13S342.42,216.68,330.66,204.91Z" style="fill:#fff;stroke:#263238;stroke-linecap:round;stroke-linejoin:round"></path><path d="M319.32,223.31a2.87,2.87,0,0,0,3.64,0" style="fill:#fff;stroke:#263238;stroke-linecap:round;stroke-linejoin:round"></path><path d="M328.73,223.52s3.21,1.71,4.28-.21" style="fill:#fff;stroke:#263238;stroke-linecap:round;stroke-linejoin:round"></path><path d="M318.47,218.6s1.71-3.21,5.13-.64" style="fill:#fff;stroke:#263238;stroke-linecap:round;stroke-linejoin:round"></path><path d="M327.66,218.17s2.78-2.35,5.35,1.07" style="fill:#fff;stroke:#263238;stroke-linecap:round;stroke-linejoin:round"></path><path d="M324.45,221.81s.65,3.85.65,4.92-2.57,3.21-1.07,4.06a5.33,5.33,0,0,0,2.35.86" style="fill:#fff;stroke:#263238;stroke-linecap:round;stroke-linejoin:round"></path><path d="M328.09,233.79a4.81,4.81,0,0,0,5.56-3.64" style="fill:#fff;stroke:#263238;stroke-linecap:round;stroke-linejoin:round"></path><path d="M328.73,203a121.53,121.53,0,0,1,7.92,22c2.78,11.55,2.56,18.39,2.14,21.6a4.72,4.72,0,0,1-3.64,3.85,31.32,31.32,0,0,0,12,1.93c6-.43,15.83-4.49,16.68-12s-4.92-23.53-7.91-32.51-7.49-17.54-12.19-18.83-12.2,5.56-14.34,10.06" style="fill:#263238;stroke:#263238;stroke-linecap:round;stroke-linejoin:round"></path><path d="M280.79,288l9.48,18.59a1.49,1.49,0,0,0,1.24.81l7.93.46a1.48,1.48,0,0,0,1.46-2L293,286.32a1.49,1.49,0,0,0-1.45-.93l-9.49.48A1.48,1.48,0,0,0,280.79,288Z" style="fill:#263238;stroke:#263238;stroke-linecap:round;stroke-linejoin:round"></path><path d="M282.25,303.75s-1,3,.75,4.75,6.27,3,8.25,1.25-3.75-3-5.25-4.5A5.86,5.86,0,0,0,282.25,303.75Z" style="fill:#fff;stroke:#263238;stroke-linecap:round;stroke-linejoin:round"></path><path d="M283.75,299.75s-3.75,3-2.25,5.25,9.5,4.75,10.25,3.25S283.75,299.75,283.75,299.75Z" style="fill:#fff;stroke:#263238;stroke-linecap:round;stroke-linejoin:round"></path><path d="M285.25,295.75S282.5,299,283,301s8.77,9.59,8.51,6.42-5.76-8.67-5.76-8.67Z" style="fill:#fff;stroke:#263238;stroke-linecap:round;stroke-linejoin:round"></path><path d="M311.71,278.27c-.74,4.68-1.39,10-.94,11.77.85,3.43,4.7,14.55,4.7,14.55" style="fill:none;stroke:#263238;stroke-linecap:round;stroke-linejoin:round"></path><path d="M313.12,270.15s-.21,1.08-.51,2.74" style="fill:none;stroke:#263238;stroke-linecap:round;stroke-linejoin:round"></path><path d="M354.4,341s-16.68-18.82-29.3-27.59-31.67-14.45-33.59-5.94-3.63,39.31-8.12,56.63-16.26,43-19.9,47.92-13.69,14.54-16,16.25-5.13,3.43-3.42,4.49,8.34,2.79,12.62.86,9.2-5.13,12-5.56,4.92-1.07,5.34-5.35-.42-10.48.86-13.69,14.55-25.45,20.53-32.08,9-13.05,11.34-22.68,1.71-21.6,1.71-21.6,7.06,16.68,24.39,19,22.24-.86,22.24-.86" style="fill:#92E3A9;stroke:#263238;stroke-linecap:round;stroke-linejoin:round"></path><path d="M288.83,385.7l-10.91-4.91c-5.25,13.91-11.86,27.71-14.43,31.18-3.63,4.92-13.69,14.54-16,16.25s-5.13,3.43-3.42,4.49,8.34,2.79,12.62.86,9.2-5.13,12-5.56,4.92-1.07,5.34-5.35-.42-10.48.86-13.69C275.74,406.69,282.72,394.77,288.83,385.7Z" style="fill:#fff;stroke:#263238;stroke-linecap:round;stroke-linejoin:round"></path><path d="M275.2,408.18l-7.87-3a55,55,0,0,1-3.84,6.79c-3.63,4.92-13.69,14.54-16,16.25s-5.13,3.43-3.42,4.49,8.34,2.79,12.62.86,9.2-5.13,12-5.56,4.92-1.07,5.34-5.35-.42-10.48.86-13.69C274.91,408.78,275,408.5,275.2,408.18Z" style="fill:#92E3A9;stroke:#263238;stroke-linecap:round;stroke-linejoin:round"></path><path d="M310.77,302.24a18.85,18.85,0,0,1-5.57-4.92c-2.35-3.21-7.05-3.43-7.7-3.43H296l1.07,1.72L286,297.53s-1.49.64.43,2.78,3.42,6,6.85,7.7,12.19,1.93,12.19,1.93l3.42.85Z" style="fill:#fff;stroke:#263238;stroke-linecap:round;stroke-linejoin:round"></path><path d="M286.38,300.31s7.91.21,10.48-.21" style="fill:#fff;stroke:#263238;stroke-linecap:round;stroke-linejoin:round"></path><path d="M288.09,302.24s5.78,2.78,10.48,2.14" style="fill:#fff;stroke:#263238;stroke-linecap:round;stroke-linejoin:round"></path><path d="M290.23,305.66s6,2.14,9.41,1.5" style="fill:#fff;stroke:#263238;stroke-linecap:round;stroke-linejoin:round"></path><path d="M358.89,265.66l-11.33,37.65s-18,1.71-24.82.85A68.19,68.19,0,0,1,309.48,301l-1.5,9.84s4.71,1.71,12.84,4.07,31.87,7.48,35.08,5.34,5.13-10.26,5.35-11.12,9.83-34,11.33-38.71,2.35-8.56-.21-10.91a27.37,27.37,0,0,0-5.56-3.85" style="fill:#6b6b6b;stroke:#263238;stroke-linecap:round;stroke-linejoin:round"></path><rect x="382.94" y="313.93" width="28.31" height="109.54" rx="3.95" style="fill:#263238;stroke:#263238;stroke-linecap:round;stroke-linejoin:round"></rect><rect x="362.23" y="313.93" width="28.31" height="109.54" rx="3.95" style="fill:#c4c4c4;stroke:#263238;stroke-linecap:round;stroke-linejoin:round"></rect></g></svg>